<mxfile host="app.diagrams.net" agent="Mozilla/5.0 (Macintosh; Intel Mac OS X 10_15_7) AppleWebKit/537.36 (KHTML, like Gecko) Chrome/135.0.0.0 Safari/537.36 Edg/135.0.0.0" version="26.2.15">
  <diagram name="第 1 页" id="tj4w_JAZVP4gHf3OIL4G">
    <mxGraphModel dx="976" dy="645" grid="1" gridSize="10" guides="1" tooltips="1" connect="1" arrows="1" fold="1" page="1" pageScale="1" pageWidth="827" pageHeight="1169" math="0" shadow="0">
      <root>
        <mxCell id="0" />
        <mxCell id="1" parent="0" />
        <mxCell id="FUV1nwXqaBQC367dFJWt-1" value="" style="rounded=0;whiteSpace=wrap;html=1;strokeWidth=5;" vertex="1" parent="1">
          <mxGeometry x="100" y="220" width="120" height="60" as="geometry" />
        </mxCell>
        <mxCell id="FUV1nwXqaBQC367dFJWt-2" value="" style="whiteSpace=wrap;html=1;rounded=0;strokeWidth=5;fillColor=#F8FF36;" vertex="1" parent="1">
          <mxGeometry x="220" y="220" width="120" height="60" as="geometry" />
        </mxCell>
        <mxCell id="FUV1nwXqaBQC367dFJWt-4" value="" style="whiteSpace=wrap;html=1;rounded=0;strokeWidth=5;fillColor=#F8FF36;" vertex="1" parent="1">
          <mxGeometry x="340" y="220" width="120" height="60" as="geometry" />
        </mxCell>
        <mxCell id="FUV1nwXqaBQC367dFJWt-6" value="" style="whiteSpace=wrap;html=1;rounded=0;strokeWidth=5;" vertex="1" parent="1">
          <mxGeometry x="460" y="220" width="120" height="60" as="geometry" />
        </mxCell>
        <mxCell id="FUV1nwXqaBQC367dFJWt-8" value="" style="endArrow=none;html=1;rounded=0;exitX=0.25;exitY=1;exitDx=0;exitDy=0;fillColor=#f8cecc;strokeColor=#b85450;strokeWidth=6;entryX=0.25;entryY=0;entryDx=0;entryDy=0;" edge="1" parent="1" target="FUV1nwXqaBQC367dFJWt-1">
          <mxGeometry width="50" height="50" relative="1" as="geometry">
            <mxPoint x="130" y="280" as="sourcePoint" />
            <mxPoint x="130" y="220" as="targetPoint" />
          </mxGeometry>
        </mxCell>
        <mxCell id="FUV1nwXqaBQC367dFJWt-10" value="" style="endArrow=none;html=1;rounded=0;entryX=0.5;entryY=0;entryDx=0;entryDy=0;exitX=0.5;exitY=1;exitDx=0;exitDy=0;fillColor=#f8cecc;strokeColor=#b85450;strokeWidth=7;" edge="1" parent="1" source="FUV1nwXqaBQC367dFJWt-6" target="FUV1nwXqaBQC367dFJWt-6">
          <mxGeometry width="50" height="50" relative="1" as="geometry">
            <mxPoint x="390" y="360" as="sourcePoint" />
            <mxPoint x="440" y="310" as="targetPoint" />
          </mxGeometry>
        </mxCell>
        <mxCell id="FUV1nwXqaBQC367dFJWt-11" value="" style="shape=curlyBracket;whiteSpace=wrap;html=1;rounded=1;labelPosition=left;verticalLabelPosition=middle;align=right;verticalAlign=middle;rotation=90;strokeWidth=4;" vertex="1" parent="1">
          <mxGeometry x="302.5" y="-7.5" width="45" height="390" as="geometry" />
        </mxCell>
        <mxCell id="FUV1nwXqaBQC367dFJWt-12" value="" style="rounded=1;whiteSpace=wrap;html=1;strokeWidth=2;fillWeight=4;hachureGap=8;hachureAngle=45;fillColor=#1ba1e2;sketch=1;" vertex="1" parent="1">
          <mxGeometry x="130" y="220" width="90" height="60" as="geometry" />
        </mxCell>
        <mxCell id="FUV1nwXqaBQC367dFJWt-14" value="" style="rounded=1;whiteSpace=wrap;html=1;strokeWidth=2;fillWeight=4;hachureGap=8;hachureAngle=45;fillColor=#1ba1e2;sketch=1;" vertex="1" parent="1">
          <mxGeometry x="460" y="220" width="60" height="60" as="geometry" />
        </mxCell>
        <mxCell id="FUV1nwXqaBQC367dFJWt-16" value="" style="whiteSpace=wrap;html=1;aspect=fixed;strokeWidth=5;" vertex="1" parent="1">
          <mxGeometry x="200" y="390" width="390" height="390" as="geometry" />
        </mxCell>
        <mxCell id="FUV1nwXqaBQC367dFJWt-17" value="" style="shape=waypoint;sketch=0;fillStyle=solid;size=6;pointerEvents=1;points=[];fillColor=none;resizable=0;rotatable=0;perimeter=centerPerimeter;snapToPoint=1;strokeWidth=5;" vertex="1" parent="1">
          <mxGeometry x="460" y="470" width="20" height="20" as="geometry" />
        </mxCell>
        <mxCell id="FUV1nwXqaBQC367dFJWt-19" value="" style="shape=waypoint;sketch=0;fillStyle=solid;size=6;pointerEvents=1;points=[];fillColor=none;resizable=0;rotatable=0;perimeter=centerPerimeter;snapToPoint=1;strokeWidth=5;" vertex="1" parent="1">
          <mxGeometry x="495.31" y="530.01" width="20" height="20" as="geometry" />
        </mxCell>
        <mxCell id="FUV1nwXqaBQC367dFJWt-21" value="" style="line;strokeWidth=2;direction=south;html=1;strokeColor=#FF4010;" vertex="1" parent="1">
          <mxGeometry x="430" y="390" width="10" height="150" as="geometry" />
        </mxCell>
        <mxCell id="FUV1nwXqaBQC367dFJWt-22" value="" style="line;strokeWidth=2;direction=south;html=1;rotation=-90;gradientColor=default;fillColor=#FF4010;strokeColor=#FF4010;" vertex="1" parent="1">
          <mxGeometry x="505.31" y="464.7" width="10" height="150.62" as="geometry" />
        </mxCell>
        <mxCell id="FUV1nwXqaBQC367dFJWt-27" style="rounded=0;orthogonalLoop=1;jettySize=auto;html=1;entryX=1;entryY=0;entryDx=0;entryDy=0;" edge="1" parent="1" source="FUV1nwXqaBQC367dFJWt-23" target="FUV1nwXqaBQC367dFJWt-16">
          <mxGeometry relative="1" as="geometry" />
        </mxCell>
        <mxCell id="FUV1nwXqaBQC367dFJWt-23" value="" style="shape=waypoint;sketch=0;fillStyle=solid;size=6;pointerEvents=1;points=[];fillColor=none;resizable=0;rotatable=0;perimeter=centerPerimeter;snapToPoint=1;strokeWidth=6;" vertex="1" parent="1">
          <mxGeometry x="347.5" y="595.32" width="20" height="20" as="geometry" />
        </mxCell>
        <mxCell id="FUV1nwXqaBQC367dFJWt-24" style="rounded=0;orthogonalLoop=1;jettySize=auto;html=1;entryX=0.605;entryY=-0.005;entryDx=0;entryDy=0;entryPerimeter=0;" edge="1" parent="1" source="FUV1nwXqaBQC367dFJWt-23" target="FUV1nwXqaBQC367dFJWt-16">
          <mxGeometry relative="1" as="geometry">
            <mxPoint x="440" y="390" as="targetPoint" />
          </mxGeometry>
        </mxCell>
        <mxCell id="FUV1nwXqaBQC367dFJWt-25" style="rounded=0;orthogonalLoop=1;jettySize=auto;html=1;entryX=1;entryY=0.5;entryDx=0;entryDy=0;entryPerimeter=0;" edge="1" parent="1" source="FUV1nwXqaBQC367dFJWt-23" target="FUV1nwXqaBQC367dFJWt-22">
          <mxGeometry relative="1" as="geometry" />
        </mxCell>
        <mxCell id="FUV1nwXqaBQC367dFJWt-26" style="rounded=0;orthogonalLoop=1;jettySize=auto;html=1;entryX=1;entryY=0.5;entryDx=0;entryDy=0;entryPerimeter=0;" edge="1" parent="1" source="FUV1nwXqaBQC367dFJWt-23" target="FUV1nwXqaBQC367dFJWt-21">
          <mxGeometry relative="1" as="geometry" />
        </mxCell>
        <mxCell id="FUV1nwXqaBQC367dFJWt-28" value="" style="shape=waypoint;sketch=0;fillStyle=solid;size=6;pointerEvents=1;points=[];fillColor=none;resizable=0;rotatable=0;perimeter=centerPerimeter;snapToPoint=1;strokeWidth=5;" vertex="1" parent="1">
          <mxGeometry x="475.31" y="410" width="20" height="20" as="geometry" />
        </mxCell>
        <mxCell id="FUV1nwXqaBQC367dFJWt-29" value="" style="shape=waypoint;sketch=0;fillStyle=solid;size=6;pointerEvents=1;points=[];fillColor=none;resizable=0;rotatable=0;perimeter=centerPerimeter;snapToPoint=1;strokeWidth=5;" vertex="1" parent="1">
          <mxGeometry x="540" y="450" width="20" height="20" as="geometry" />
        </mxCell>
        <mxCell id="FUV1nwXqaBQC367dFJWt-30" value="1&amp;nbsp; &amp;nbsp; &amp;nbsp;2&amp;nbsp; &amp;nbsp; &amp;nbsp;3&amp;nbsp; &amp;nbsp; &amp;nbsp;6&amp;nbsp; &amp;nbsp; &amp;nbsp;6&amp;nbsp; &amp;nbsp; &amp;nbsp;3&amp;nbsp; &amp;nbsp; &amp;nbsp;7&amp;nbsp; &amp;nbsp; &amp;nbsp;9&amp;nbsp; &amp;nbsp; &amp;nbsp;8&amp;nbsp; &amp;nbsp; 8&lt;div&gt;&lt;font style=&quot;color: rgb(126, 166, 224);&quot;&gt;1&amp;nbsp; &amp;nbsp; &amp;nbsp;2&amp;nbsp; &amp;nbsp; &amp;nbsp;3&amp;nbsp; &amp;nbsp; &amp;nbsp;4&amp;nbsp; &amp;nbsp; &amp;nbsp;5&amp;nbsp; &amp;nbsp; &amp;nbsp;6&amp;nbsp; &amp;nbsp; &amp;nbsp;7&amp;nbsp; &amp;nbsp; &amp;nbsp;8&amp;nbsp; &amp;nbsp; &amp;nbsp;9&amp;nbsp; 10&lt;/font&gt;&lt;/div&gt;" style="text;strokeColor=none;fillColor=none;html=1;fontSize=24;fontStyle=1;verticalAlign=middle;align=center;" vertex="1" parent="1">
          <mxGeometry x="364" y="1410" width="100" height="40" as="geometry" />
        </mxCell>
        <mxCell id="FUV1nwXqaBQC367dFJWt-31" value="" style="shape=curlyBracket;whiteSpace=wrap;html=1;rounded=1;labelPosition=left;verticalLabelPosition=middle;align=right;verticalAlign=middle;rotation=90;strokeWidth=4;" vertex="1" parent="1">
          <mxGeometry x="404" y="1180" width="20" height="420" as="geometry" />
        </mxCell>
        <mxCell id="FUV1nwXqaBQC367dFJWt-32" value="" style="shape=curlyBracket;whiteSpace=wrap;html=1;rounded=1;labelPosition=left;verticalLabelPosition=middle;align=right;verticalAlign=middle;rotation=90;strokeWidth=4;" vertex="1" parent="1">
          <mxGeometry x="430.31" y="1155" width="20" height="370" as="geometry" />
        </mxCell>
        <mxCell id="FUV1nwXqaBQC367dFJWt-33" value="" style="shape=curlyBracket;whiteSpace=wrap;html=1;rounded=1;labelPosition=left;verticalLabelPosition=middle;align=right;verticalAlign=middle;rotation=90;strokeWidth=4;" vertex="1" parent="1">
          <mxGeometry x="335.31" y="1250" width="20" height="90" as="geometry" />
        </mxCell>
        <mxCell id="FUV1nwXqaBQC367dFJWt-34" value="" style="shape=curlyBracket;whiteSpace=wrap;html=1;rounded=1;labelPosition=left;verticalLabelPosition=middle;align=right;verticalAlign=middle;rotation=90;strokeWidth=4;size=0.5;" vertex="1" parent="1">
          <mxGeometry x="342.5" y="1232.5" width="20" height="25" as="geometry" />
        </mxCell>
        <mxCell id="FUV1nwXqaBQC367dFJWt-37" value="" style="shape=curlyBracket;whiteSpace=wrap;html=1;rounded=1;labelPosition=left;verticalLabelPosition=middle;align=right;verticalAlign=middle;rotation=90;strokeWidth=4;" vertex="1" parent="1">
          <mxGeometry x="545" y="1195" width="20" height="140" as="geometry" />
        </mxCell>
        <mxCell id="FUV1nwXqaBQC367dFJWt-38" value="" style="shape=curlyBracket;whiteSpace=wrap;html=1;rounded=1;labelPosition=left;verticalLabelPosition=middle;align=right;verticalAlign=middle;rotation=90;strokeWidth=4;" vertex="1" parent="1">
          <mxGeometry x="567.5" y="1177.5" width="20" height="95" as="geometry" />
        </mxCell>
        <mxCell id="FUV1nwXqaBQC367dFJWt-39" value="" style="shape=curlyBracket;whiteSpace=wrap;html=1;rounded=1;labelPosition=left;verticalLabelPosition=middle;align=right;verticalAlign=middle;rotation=90;strokeWidth=4;size=0.5;" vertex="1" parent="1">
          <mxGeometry x="570" y="1282.5" width="20" height="25" as="geometry" />
        </mxCell>
      </root>
    </mxGraphModel>
  </diagram>
</mxfile>
